<?xml version="1.0" encoding="UTF-8" standalone="no"?>
<svg
   xmlns:dc="http://purl.org/dc/elements/1.1/"
   xmlns:cc="http://creativecommons.org/ns#"
   xmlns:rdf="http://www.w3.org/1999/02/22-rdf-syntax-ns#"
   xmlns:svg="http://www.w3.org/2000/svg"
   xmlns="http://www.w3.org/2000/svg"
   xmlns:xlink="http://www.w3.org/1999/xlink"
   xmlns:sodipodi="http://sodipodi.sourceforge.net/DTD/sodipodi-0.dtd"
   xmlns:inkscape="http://www.inkscape.org/namespaces/inkscape"
   version="1.2"
   width="57.492004mm"
   height="12.868698mm"
   viewBox="0 0 32.716126 7.3229997"
   id="svg78"
   sodipodi:docname="mary.svg"
   inkscape:version="0.92.5 (2060ec1f9f, 2020-04-08)">
  <metadata
     id="metadata84">
    <rdf:RDF>
      <cc:Work
         rdf:about="">
        <dc:format>image/svg+xml</dc:format>
        <dc:type
           rdf:resource="http://purl.org/dc/dcmitype/StillImage" />
        <dc:title></dc:title>
      </cc:Work>
    </rdf:RDF>
  </metadata>
  <defs
     id="defs82" />
  <sodipodi:namedview
     pagecolor="#ffffff"
     bordercolor="#666666"
     borderopacity="1"
     objecttolerance="10"
     gridtolerance="10"
     guidetolerance="10"
     inkscape:pageopacity="0"
     inkscape:pageshadow="2"
     inkscape:window-width="782"
     inkscape:window-height="480"
     id="namedview80"
     showgrid="false"
     fit-margin-top="0"
     fit-margin-left="0"
     fit-margin-right="0"
     fit-margin-bottom="0"
     inkscape:zoom="0.2102413"
     inkscape:cx="161.40913"
     inkscape:cy="-561.33806"
     inkscape:window-x="766"
     inkscape:window-y="338"
     inkscape:window-maximized="0"
     inkscape:current-layer="svg78" />
  <style
     text="style/css"
     id="style2"><![CDATA[
tspan { white-space: pre; }
]]></style>
  <!-- Page: 1/1 -->
  <text
     font-size="2.2001"
     id="text6"
     style="font-size:2.20009995px;font-family:serif;text-anchor:start;fill:currentColor"
     x="-8.5350876"
     y="-0.98500001">
    <tspan
       id="tspan4"
       style="white-space:pre" />
  </text>
  <line
     x1="0.050712124"
     y1="5.7789998"
     x2="32.665413"
     y2="5.7789998"
     id="line8"
     style="stroke:currentColor;stroke-width:0.1;stroke-linecap:round;stroke-linejoin:round" />
  <line
     x1="0.050712124"
     y1="4.7789998"
     x2="32.665413"
     y2="4.7789998"
     id="line10"
     style="stroke:currentColor;stroke-width:0.1;stroke-linecap:round;stroke-linejoin:round" />
  <line
     x1="0.050712124"
     y1="3.779"
     x2="32.665413"
     y2="3.779"
     id="line12"
     style="stroke:currentColor;stroke-width:0.1;stroke-linecap:round;stroke-linejoin:round" />
  <line
     x1="0.050712124"
     y1="2.779"
     x2="32.665413"
     y2="2.779"
     id="line14"
     style="stroke:currentColor;stroke-width:0.1;stroke-linecap:round;stroke-linejoin:round" />
  <line
     x1="0.050712124"
     y1="1.779"
     x2="32.665413"
     y2="1.779"
     id="line16"
     style="stroke:currentColor;stroke-width:0.1;stroke-linecap:round;stroke-linejoin:round" />
  <rect
     x="14.379213"
     y="6.6789999"
     width="1.9563"
     height="0.2"
     ry="0.1"
     id="rect18"
     style="fill:currentColor" />
  <rect
     x="20.924011"
     y="1.779"
     width="0.19"
     height="4"
     ry="0.0000"
     id="rect20"
     style="fill:currentColor" />
  <rect
     x="32.525414"
     y="1.779"
     width="0.19"
     height="4"
     ry="0.0000"
     id="rect22"
     style="fill:currentColor" />
  <a
     style="color:inherit"
     xlink:href="textedit:///home/spragunr/synth/mary.ly:4:15:16"
     id="a26"
     transform="translate(-14.225688,-3.8303)">
    <path
       transform="matrix(0.004,0,0,-0.004,39.2419,9.6093)"
       d="m 218,136 c 55,0 108,-28 108,-89 0,-71 -55,-121 -102,-149 -35,-21 -75,-34 -116,-34 -55,0 -108,28 -108,89 0,71 55,121 102,149 35,21 75,34 116,34 z"
       id="path24"
       inkscape:connector-curvature="0"
       style="fill:currentColor" />
  </a>
  <a
     style="color:inherit"
     xlink:href="textedit:///home/spragunr/synth/mary.ly:4:12:13"
     id="a30"
     transform="translate(-14.225688,-3.8303)">
    <path
       transform="matrix(0.004,0,0,-0.004,36.2397,9.6093)"
       d="m 218,136 c 55,0 108,-28 108,-89 0,-71 -55,-121 -102,-149 -35,-21 -75,-34 -116,-34 -55,0 -108,28 -108,89 0,71 55,121 102,149 35,21 75,34 116,34 z"
       id="path28"
       inkscape:connector-curvature="0"
       style="fill:currentColor" />
  </a>
  <rect
     x="23.188211"
     y="2.279"
     width="0.13"
     height="3.3139"
     ry="0.039999999"
     id="rect32"
     style="fill:currentColor" />
  <rect
     x="26.190512"
     y="2.279"
     width="0.13"
     height="3.3139"
     ry="0.039999999"
     id="rect34"
     style="fill:currentColor" />
  <rect
     x="29.265812"
     y="2.279"
     width="0.13"
     height="3.2409999"
     ry="0.039999999"
     id="rect36"
     style="fill:currentColor" />
  <a
     style="color:inherit"
     xlink:href="textedit:///home/spragunr/synth/mary.ly:4:18:19"
     id="a40"
     transform="translate(-14.225688,-3.8303)">
    <path
       transform="matrix(0.004,0,0,-0.004,42.2442,9.6093)"
       d="m 314,65 c 0,24 -21,41 -42,41 -4,0 -8,0 -12,-1 C 229,96 182,65 145,41 108,17 61,-12 41,-37 34,-45 31,-55 31,-65 c 0,-24 21,-41 42,-41 4,0 8,0 12,1 31,9 77,40 114,64 37,24 84,53 104,78 7,8 11,18 11,28 z m -52,71 c 46,0 82,-21 82,-71 0,-19 -4,-39 -10,-57 -12,-37 -32,-72 -64,-94 -53,-36 -113,-50 -187,-50 -46,0 -83,21 -83,71 0,19 5,39 11,57 12,37 31,72 63,94 53,36 114,50 188,50 z"
       id="path38"
       inkscape:connector-curvature="0"
       style="fill:currentColor" />
  </a>
  <a
     style="color:inherit"
     xlink:href="textedit:///home/spragunr/synth/mary.ly:4:3:4"
     id="a44"
     transform="translate(-14.225688,-3.8303)">
    <path
       transform="matrix(0.004,0,0,-0.004,25.9286,10.1093)"
       d="m 218,136 c 55,0 108,-28 108,-89 0,-71 -55,-121 -102,-149 -35,-21 -75,-34 -116,-34 -55,0 -108,28 -108,89 0,71 55,121 102,149 35,21 75,34 116,34 z"
       id="path42"
       inkscape:connector-curvature="0"
       style="fill:currentColor" />
  </a>
  <rect
     x="9.8749123"
     y="2.279"
     width="0.13"
     height="3.3139"
     ry="0.039999999"
     id="rect46"
     style="fill:currentColor" />
  <path
     d="m 6.4367121,3.671 c -0.196,0 -0.3,-0.168 -0.3,-0.3 0,-0.152 0.108,-0.308 0.288,-0.308 0.016,0 0.036,0 0.056,0.004 -0.112,-0.148 -0.288,-0.236 -0.48,-0.236 -0.424,0 -0.452,0.292 -0.452,0.744 v 0.204 0.204 c 0,0.452 0.028,0.748 0.452,0.748 0.32,0 0.556,-0.28 0.632,-0.604 0.008,-0.028 0.028,-0.04 0.048,-0.04 0.024,0 0.052,0.016 0.052,0.048 0,0.376 -0.42,0.696 -0.732,0.696 -0.272,0 -0.548,-0.084 -0.736,-0.28 -0.196,-0.204 -0.264,-0.488 -0.264,-0.772 0,-0.284 0.068,-0.568 0.264,-0.772 0.188,-0.196 0.464,-0.276 0.736,-0.276 0.348,0 0.64,0.252 0.7,0.596 0.004,0.02 0.004,0.04 0.004,0.056 0,0.16 -0.12,0.288 -0.268,0.288 z"
     id="path48"
     inkscape:connector-curvature="0"
     style="fill:currentColor;stroke-width:0.004" />
  <path
     d="m 1.8647121,7.319 h -0.024 c -0.432,0 -0.78,-0.352 -0.78,-0.788 0,-0.232 0.212,-0.412 0.448,-0.412 0.216,0 0.38,0.188 0.38,0.412 0,0.208 -0.172,0.38 -0.38,0.38 -0.044,0 -0.084,-0.008 -0.124,-0.024 0.104,0.156 0.272,0.26 0.468,0.26 h 0.016 z m 0.78,-1.728 c 0.272,-0.096 0.452,-0.38 0.452,-0.656 0,-0.36 -0.264,-0.716 -0.692,-0.76 0.096,0.464 0.184,0.924 0.24,1.416 z m -1.548,-0.924 c 0,0.54 0.516,0.988 1.056,0.988 0.112,0 0.22,-0.008 0.328,-0.024 -0.056,-0.508 -0.148,-0.98 -0.252,-1.456 -0.316,0.032 -0.496,0.244 -0.496,0.476 0,0.176 0.1,0.364 0.324,0.492 0.02,0.02 0.028,0.04 0.028,0.06 0,0.044 -0.04,0.088 -0.088,0.088 -0.012,0 -0.024,-0.004 -0.036,-0.008 -0.32,-0.172 -0.468,-0.46 -0.468,-0.74 0,-0.352 0.232,-0.696 0.64,-0.788 -0.056,-0.232 -0.116,-0.468 -0.184,-0.7 -0.428,0.484 -0.852,0.972 -0.852,1.612 z m 1.044,1.16 c -0.752,0 -1.33199997,-0.688 -1.33199997,-1.496 0,-0.708 0.52399997,-1.224 0.99199997,-1.764 -0.076,-0.248 -0.148,-0.5 -0.18,-0.76 -0.024,-0.208 -0.028,-0.416 -0.028,-0.624 0,-0.46 0.22,-0.896 0.596,-1.168 0.024,-0.02 0.056,-0.02 0.08,0 0.284,0.336 0.532,0.98 0.532,1.432 0,0.572 -0.344,1.02 -0.72,1.456 0.084,0.272 0.156,0.552 0.224,0.828 0.016,0 0.036,-0.004 0.052,-0.004 0.62,0 1.024,0.512 1.024,1.044 0,0.304 -0.132,0.616 -0.428,0.84 -0.088,0.068 -0.188,0.112 -0.292,0.144 0.012,0.14 0.02,0.28 0.02,0.42 0,0.076 -0.004,0.156 -0.008,0.232 -0.028,0.476 -0.352,0.9 -0.808,0.912 l 0.004,-0.172 c 0.372,-0.008 0.612,-0.368 0.636,-0.764 0.004,-0.072 0.008,-0.148 0.008,-0.22 0,-0.124 -0.004,-0.244 -0.016,-0.368 -0.116,0.02 -0.232,0.032 -0.356,0.032 z m 0.372,-4.712 c 0,-0.22 -0.016,-0.316 -0.08,-0.516 -0.396,0.192 -0.648,0.596 -0.648,1.036 0,0.296 0.072,0.532 0.144,0.776 0.32,-0.388 0.584,-0.792 0.584,-1.296 z"
     id="path50"
     inkscape:connector-curvature="0"
     style="fill:currentColor;stroke-width:0.004" />
  <a
     style="color:inherit"
     xlink:href="textedit:///home/spragunr/synth/mary.ly:4:0:1"
     id="a54"
     transform="translate(-14.225688,-3.8303)">
    <path
       transform="matrix(0.004,0,0,-0.004,22.9264,9.6093)"
       d="m 218,136 c 55,0 108,-28 108,-89 0,-71 -55,-121 -102,-149 -35,-21 -75,-34 -116,-34 -55,0 -108,28 -108,89 0,71 55,121 102,149 35,21 75,34 116,34 z"
       id="path52"
       inkscape:connector-curvature="0"
       style="fill:currentColor" />
  </a>
  <a
     style="color:inherit"
     xlink:href="textedit:///home/spragunr/synth/mary.ly:4:6:7"
     id="a58"
     transform="translate(-14.225688,-3.8303)">
    <path
       transform="matrix(0.004,0,0,-0.004,28.9309,10.6093)"
       d="m 218,136 c 55,0 108,-28 108,-89 0,-71 -55,-121 -102,-149 -35,-21 -75,-34 -116,-34 -55,0 -108,28 -108,89 0,71 55,121 102,149 35,21 75,34 116,34 z"
       id="path56"
       inkscape:connector-curvature="0"
       style="fill:currentColor" />
  </a>
  <rect
     x="18.881712"
     y="2.779"
     width="0.13"
     height="3.3139"
     ry="0.039999999"
     id="rect60"
     style="fill:currentColor" />
  <a
     style="color:inherit"
     xlink:href="textedit:///home/spragunr/synth/mary.ly:4:9:10"
     id="a64"
     transform="translate(-14.225688,-3.8303)">
    <path
       transform="matrix(0.004,0,0,-0.004,31.9331,10.1093)"
       d="m 218,136 c 55,0 108,-28 108,-89 0,-71 -55,-121 -102,-149 -35,-21 -75,-34 -116,-34 -55,0 -108,28 -108,89 0,71 55,121 102,149 35,21 75,34 116,34 z"
       id="path62"
       inkscape:connector-curvature="0"
       style="fill:currentColor" />
  </a>
  <rect
     x="15.879412"
     y="3.279"
     width="0.13"
     height="3.3139"
     ry="0.039999999"
     id="rect66"
     style="fill:currentColor" />
  <rect
     x="12.877112"
     y="2.779"
     width="0.13"
     height="3.3139"
     ry="0.039999999"
     id="rect68"
     style="fill:currentColor" />
</svg>
